<!-- Generator: visioncortex VTracer 0.6.3 --><svg version="1.1" xmlns="http://www.w3.org/2000/svg" width="90" height="53" viewBox="0 0 1280 761"><path d="M0 0 C422.4 0 844.8 0 1280 0 C1280 251.13 1280 502.26 1280 761 C857.6 761 435.2 761 0 761 C0 509.87 0 258.74 0 0 Z " fill="#FCFCFC" transform="translate(0,0)" /><path d="M0 0 C1.59 0.01 1.59 0.01 3.21 0.02 C4.3 0.04 5.39 0.06 6.52 0.08 C7.62 0.08 8.73 0.09 9.87 0.09 C18.02 0.17 18.02 0.17 20.33 1.33 C20.12 1.93 19.9 2.53 19.68 3.16 C19.4 3.96 19.12 4.75 18.83 5.58 C18.55 6.37 18.28 7.16 17.99 7.97 C17.15 10.56 17.15 10.56 17.33 14.33 C63.53 14.33 109.73 14.33 157.33 14.33 C155.35 9.38 155.35 9.38 153.33 4.33 C153.33 3.34 153.33 2.35 153.33 1.33 C155.74 0.13 157.26 0.19 159.94 0.17 C160.91 0.17 161.89 0.16 162.89 0.15 C163.96 0.14 165.03 0.14 166.13 0.14 C167.25 0.13 168.38 0.12 169.53 0.11 C173.26 0.09 177 0.07 180.73 0.05 C182.63 0.05 182.63 0.05 184.58 0.04 C189.92 0.02 195.27 -0 200.61 -0.01 C208.27 -0.03 215.92 -0.06 223.58 -0.12 C229.62 -0.16 235.65 -0.18 241.68 -0.19 C244.25 -0.19 246.82 -0.21 249.38 -0.23 C252.97 -0.26 256.56 -0.26 260.15 -0.26 C261.21 -0.27 262.27 -0.29 263.37 -0.31 C270.58 -0.24 270.58 -0.24 274.43 2.68 C276.48 5.54 277.89 8.23 279.23 11.48 C279.73 12.67 280.23 13.86 280.74 15.09 C281.25 16.33 281.76 17.58 282.27 18.83 C283.28 21.26 284.29 23.68 285.3 26.11 C285.8 27.31 286.3 28.52 286.81 29.76 C288.74 34.28 290.8 38.74 292.88 43.2 C295.21 48.21 297.42 53.27 299.64 58.33 C300.12 59.4 300.59 60.47 301.08 61.58 C303.73 67.62 306.34 73.68 308.9 79.76 C312.71 88.76 316.74 97.57 321.25 106.24 C322.44 108.54 323.63 110.85 324.81 113.15 C337.23 137.48 337.23 137.48 357.33 155.33 C358.25 155.91 358.25 155.91 359.18 156.5 C364.37 159.46 370.09 160.65 375.87 161.93 C381.13 163.13 381.13 163.13 383.33 165.33 C383.53 167.93 383.53 167.93 383.46 170.95 C383.44 171.96 383.42 172.96 383.4 173.99 C383.38 174.76 383.36 175.53 383.33 176.33 C354.05 176.35 324.76 176.37 295.48 176.38 C292.03 176.38 288.57 176.38 285.12 176.38 C284.43 176.38 283.75 176.38 283.04 176.38 C271.89 176.39 260.74 176.4 249.59 176.41 C238.16 176.41 226.73 176.42 215.3 176.42 C208.88 176.42 202.46 176.43 196.03 176.43 C189.99 176.44 183.96 176.44 177.92 176.44 C175.69 176.44 173.47 176.44 171.25 176.45 C168.23 176.45 165.21 176.45 162.18 176.45 C161.29 176.45 160.4 176.45 159.48 176.46 C153.45 176.44 153.45 176.44 152.33 175.33 C152.26 173.48 152.25 171.62 152.27 169.77 C152.28 168.75 152.29 167.74 152.3 166.7 C152.31 165.53 152.31 165.53 152.33 164.33 C153.56 164.29 154.78 164.25 156.04 164.21 C182.01 163.98 182.01 163.98 204.39 152.64 C208.98 147.17 207.9 139.44 207.58 132.6 C207.12 128.33 205.53 124.72 203.62 120.91 C202.22 118.11 201.31 115.3 200.33 112.33 C199.59 110.61 198.82 108.9 198.02 107.2 C196.27 103.42 194.6 99.62 193.01 95.77 C191.23 91.48 189.43 87.2 187.61 82.93 C187.16 81.85 186.7 80.77 186.23 79.67 C185.3 77.49 184.37 75.31 183.44 73.13 C180.63 66.51 177.97 59.86 175.46 53.12 C174.05 49.63 172.27 46.55 170.33 43.33 C170.33 42.67 170.33 42.01 170.33 41.33 C114.89 41.33 59.45 41.33 2.33 41.33 C1.34 44.3 0.35 47.27 -0.67 50.33 C-1.26 51.82 -1.88 53.3 -2.54 54.76 C-2.86 55.48 -3.19 56.21 -3.52 56.96 C-3.86 57.7 -4.2 58.44 -4.54 59.2 C-5.07 60.38 -5.07 60.38 -5.61 61.59 C-7.49 65.76 -9.39 69.92 -11.29 74.08 C-12.09 75.83 -12.88 77.58 -13.67 79.33 C-14.15 80.39 -14.63 81.45 -15.13 82.54 C-23.13 100.6 -30.87 121.25 -24.62 140.96 C-21.54 148.57 -14.79 152.75 -7.67 156.33 C0.68 159.62 9.49 160.4 18.33 161.39 C21.12 161.7 23.92 162.03 26.71 162.36 C27.93 162.5 29.16 162.64 30.42 162.78 C33.33 163.33 33.33 163.33 35.33 165.33 C35.53 167.93 35.53 167.93 35.46 170.95 C35.44 171.96 35.42 172.96 35.4 173.99 C35.38 174.76 35.36 175.53 35.33 176.33 C14.75 176.35 -5.83 176.37 -26.42 176.38 C-35.97 176.39 -45.53 176.39 -55.09 176.4 C-63.41 176.41 -71.74 176.42 -80.07 176.42 C-84.48 176.42 -88.89 176.43 -93.3 176.43 C-97.45 176.44 -101.6 176.44 -105.74 176.44 C-107.27 176.44 -108.8 176.44 -110.32 176.45 C-112.4 176.45 -114.47 176.45 -116.55 176.45 C-117.71 176.45 -118.88 176.45 -120.08 176.45 C-122.67 176.33 -122.67 176.33 -123.67 175.33 C-123.74 173.48 -123.75 171.62 -123.73 169.77 C-123.72 168.75 -123.71 167.74 -123.7 166.7 C-123.69 165.53 -123.69 165.53 -123.67 164.33 C-123.09 164.15 -122.52 163.98 -121.93 163.8 C-96.48 155.92 -78.99 143.84 -65.67 120.33 C-65 119.16 -65 119.16 -64.32 117.96 C-60.18 110.52 -56.4 102.89 -52.62 95.25 C-51.23 92.44 -49.82 89.64 -48.42 86.83 C-47.94 85.87 -47.46 84.91 -46.97 83.93 C-46.18 82.34 -45.37 80.77 -44.55 79.2 C-42.14 74.58 -40.36 69.88 -38.7 64.94 C-37.67 62.33 -37.67 62.33 -36.28 60.05 C-34.08 56.34 -32.55 52.44 -30.92 48.45 C-27.96 41.31 -24.85 34.29 -21.52 27.32 C-20.08 24.26 -18.73 21.17 -17.41 18.06 C-17.01 17.15 -16.62 16.24 -16.22 15.31 C-15.45 13.52 -14.69 11.73 -13.95 9.94 C-13.42 8.72 -13.42 8.72 -12.88 7.47 C-12.57 6.74 -12.27 6.02 -11.95 5.27 C-8.99 0.79 -5.11 -0.05 0 0 Z " fill="#000002" transform="translate(839.66796875,436.671875)" /><path d="M0 0 C17.78 -0.12 35.55 -0.2 53.33 -0.26 C61.58 -0.28 69.84 -0.32 78.09 -0.38 C85.28 -0.43 92.48 -0.46 99.67 -0.47 C103.48 -0.48 107.29 -0.49 111.1 -0.53 C114.69 -0.56 118.27 -0.57 121.86 -0.57 C123.8 -0.57 125.74 -0.59 127.68 -0.62 C137.18 -0.57 137.18 -0.57 140.23 2.43 C140.81 3.28 141.4 4.13 142 5 C142.5 5.54 143 6.09 143.51 6.65 C144.91 8.26 146.3 9.88 147.69 11.5 C148.21 12.11 148.73 12.72 149.27 13.35 C153.11 17.87 156.77 22.51 160.35 27.24 C163.14 30.92 166.03 34.47 169 38 C172.79 42.5 176.41 47.1 179.96 51.78 C184.18 57.3 188.6 62.63 193.03 67.97 C196.55 72.23 200.01 76.52 203.37 80.9 C206.09 84.41 208.93 87.82 211.75 91.25 C213.83 93.79 215.85 96.36 217.88 98.94 C222.19 104.35 226.86 109.4 231.58 114.46 C232.99 115.99 234.38 117.53 235.76 119.08 C256.44 142.15 278.58 157.78 309.19 163.58 C311 164 311 164 313 165 C313 168.63 313 172.26 313 176 C281.42 176.02 249.85 176.04 218.27 176.05 C214.55 176.05 210.82 176.05 207.1 176.05 C206.36 176.06 205.62 176.06 204.85 176.06 C192.83 176.06 180.81 176.07 168.79 176.08 C156.46 176.09 144.14 176.09 131.81 176.09 C124.2 176.1 116.59 176.1 108.98 176.11 C103.15 176.11 97.33 176.11 91.5 176.11 C89.1 176.11 86.71 176.12 84.31 176.12 C81.05 176.12 77.79 176.12 74.54 176.12 C73.57 176.12 72.61 176.13 71.62 176.13 C65.11 176.11 65.11 176.11 64 175 C63.93 173.15 63.92 171.29 63.94 169.44 C63.95 168.43 63.96 167.41 63.96 166.37 C63.98 165.59 63.99 164.81 64 164 C64.98 163.8 64.98 163.8 65.98 163.6 C68.99 163 72 162.37 75 161.75 C76.03 161.55 77.06 161.34 78.12 161.13 C85.89 159.5 93.87 157.56 99 151 C101.6 144.71 99.81 138.22 97.46 132.16 C92.83 122.14 86.48 112.9 80 104 C79.42 103.18 78.84 102.36 78.25 101.51 C73.79 95.24 69.02 89.27 64.13 83.33 C60.1 78.41 56.21 73.39 52.38 68.31 C48.06 62.62 43.62 57.09 38.96 51.68 C35.36 47.47 31.97 43.14 28.63 38.73 C26 35.28 23.32 31.9 20.56 28.56 C17.07 24.33 13.64 20.06 10.25 15.75 C9.58 14.9 9.58 14.9 8.89 14.03 C0 2.71 0 2.71 0 0 Z " fill="#000002" transform="translate(328,437)" /><path d="M0 0 C1.39 -0.01 1.39 -0.01 2.81 -0.01 C3.82 -0.01 4.84 -0.01 5.88 -0.01 C6.95 -0.01 8.02 -0.02 9.13 -0.02 C12.67 -0.03 16.22 -0.03 19.76 -0.03 C22.22 -0.04 24.68 -0.04 27.13 -0.04 C32.29 -0.05 37.44 -0.05 42.59 -0.05 C49.21 -0.05 55.82 -0.07 62.44 -0.08 C67.52 -0.09 72.59 -0.1 77.66 -0.09 C80.1 -0.1 82.54 -0.1 84.99 -0.11 C88.39 -0.12 91.79 -0.12 95.2 -0.11 C96.22 -0.11 97.23 -0.12 98.28 -0.13 C99.67 -0.12 99.67 -0.12 101.08 -0.11 C101.89 -0.11 102.69 -0.11 103.52 -0.12 C105.48 0.13 105.48 0.13 107.48 2.13 C107.73 4.21 107.73 4.21 107.74 6.82 C107.75 7.81 107.76 8.8 107.77 9.82 C107.77 10.91 107.76 12 107.76 13.12 C107.77 14.27 107.78 15.41 107.78 16.59 C107.8 19.09 107.81 21.58 107.81 24.08 C107.82 28.04 107.84 32 107.86 35.96 C107.91 44.4 107.95 52.83 107.98 61.26 C108.01 70.31 108.05 79.37 108.1 88.43 C108.13 92.98 108.14 97.53 108.15 102.08 C106.98 126.47 106.98 126.47 116.13 147.95 C128.31 159.48 142.98 161.86 159.06 163.49 C164.38 164.04 164.38 164.04 165.48 165.13 C165.55 166.99 165.56 168.84 165.54 170.7 C165.53 171.71 165.52 172.72 165.51 173.76 C165.49 174.94 165.49 174.94 165.48 176.13 C135.06 176.16 104.65 176.17 74.24 176.18 C70.65 176.19 67.06 176.19 63.47 176.19 C62.4 176.19 62.4 176.19 61.31 176.19 C49.73 176.19 38.16 176.2 26.58 176.21 C14.71 176.22 2.84 176.23 -9.04 176.23 C-15.71 176.23 -22.38 176.23 -29.05 176.24 C-35.32 176.25 -41.59 176.25 -47.87 176.25 C-50.18 176.25 -52.48 176.25 -54.79 176.25 C-57.93 176.26 -61.07 176.26 -64.21 176.25 C-65.13 176.26 -66.06 176.26 -67.01 176.26 C-73.3 176.25 -73.3 176.25 -75.52 175.13 C-75.55 173.49 -75.57 171.84 -75.59 170.2 C-75.6 169.28 -75.61 168.36 -75.62 167.42 C-75.52 165.13 -75.52 165.13 -74.52 164.13 C-73.04 164 -71.56 163.93 -70.07 163.89 C-69.15 163.86 -68.22 163.82 -67.27 163.79 C-66.28 163.76 -65.29 163.73 -64.27 163.7 C-47.94 163.05 -31.09 161.93 -18.48 150.24 C-4.4 134.06 -8.35 106.11 -8.21 86.19 C-8.19 83.73 -8.17 81.26 -8.14 78.8 C-8.09 72.37 -8.04 65.94 -7.99 59.51 C-7.94 52.93 -7.89 46.34 -7.83 39.76 C-7.72 26.89 -7.62 14.01 -7.52 1.13 C-4.69 0.19 -2.94 0.01 0 0 Z " fill="#000002" transform="translate(162.52333068847656,436.8662872314453)" /><path d="M0 0 C0.91 0 1.83 0 2.77 0.01 C3.74 0.01 4.7 0 5.69 0 C8.95 -0 12.2 0 15.46 0 C17.78 0 20.11 0 22.43 -0 C28.76 -0.01 35.09 -0 41.42 -0 C47.36 0 53.3 -0 59.24 -0 C71.72 -0 84.2 -0 96.69 0 C107.41 0.01 118.13 0.01 128.85 0 C141.28 -0 153.72 -0 166.15 -0 C172.74 0 179.33 0 185.92 -0 C192.11 -0.01 198.3 -0 204.49 0 C206.77 0 209.05 0 211.33 0 C214.43 -0 217.53 0 220.63 0.01 C221.54 0 222.46 0 223.4 0 C229.58 0.02 229.58 0.02 230.7 1.13 C230.77 2.99 230.78 4.84 230.76 6.7 C230.75 7.71 230.74 8.72 230.73 9.76 C230.72 10.94 230.72 10.94 230.7 12.13 C227.64 13.15 224.79 13.47 221.59 13.78 C208.64 15.02 195.03 16.71 185.82 27.01 C177.06 39.9 176.58 53.9 176.49 69.1 C176.48 70.25 176.47 71.41 176.46 72.59 C176.43 76.37 176.41 80.15 176.38 83.92 C176.36 86.55 176.34 89.19 176.32 91.82 C176.27 98.01 176.22 104.21 176.18 110.41 C176.13 117.47 176.08 124.53 176.02 131.59 C175.91 146.11 175.8 160.62 175.7 175.13 C172.74 175.99 170.13 176.25 167.05 176.22 C166.12 176.22 165.19 176.21 164.23 176.21 C163.22 176.19 162.21 176.18 161.16 176.17 C160.09 176.16 159.02 176.16 157.91 176.15 C154.37 176.12 150.83 176.08 147.28 176.05 C144.82 176.03 142.36 176 139.91 175.98 C134.76 175.94 129.61 175.89 124.45 175.84 C117.84 175.77 111.22 175.71 104.6 175.66 C99.53 175.62 94.45 175.57 89.38 175.52 C86.94 175.5 84.5 175.48 82.05 175.46 C78.65 175.43 75.25 175.39 71.85 175.35 C70.83 175.35 69.81 175.34 68.76 175.33 C67.38 175.32 67.38 175.32 65.97 175.3 C64.76 175.29 64.76 175.29 63.53 175.28 C61.7 175.13 61.7 175.13 60.7 174.13 C60.59 172.74 60.56 171.34 60.55 169.95 C60.54 169.04 60.53 168.14 60.52 167.21 C60.52 166.21 60.51 165.21 60.51 164.18 C60.5 162.61 60.5 162.61 60.48 161 C60.47 158.72 60.45 156.43 60.44 154.15 C60.42 150.52 60.39 146.89 60.36 143.26 C60.3 135.53 60.25 127.8 60.2 120.07 C60.14 111.17 60.08 102.26 60.01 93.35 C59.98 89.8 59.96 86.25 59.94 82.69 C61.13 52.02 61.13 52.02 48.45 25.32 C35.93 13.93 19.84 13.78 3.77 12.78 C2.62 12.71 1.48 12.64 0.31 12.56 C-0.72 12.5 -1.76 12.44 -2.82 12.38 C-5.3 12.13 -5.3 12.13 -7.3 11.13 C-7.33 9.49 -7.35 7.84 -7.36 6.2 C-7.38 5.28 -7.39 4.36 -7.4 3.42 C-7.2 -1.3 -3.96 0.01 0 0 Z " fill="#000002" transform="translate(94.30127429962158,136.8662565946579)" /><path d="M0 0 C3 0.56 3 0.56 4.54 2.29 C6.06 4.65 7.2 6.97 8.31 9.54 C8.74 10.53 9.17 11.52 9.62 12.53 C10.07 13.59 10.53 14.66 11 15.75 C11.99 18.02 12.98 20.3 13.97 22.57 C14.47 23.74 14.98 24.9 15.5 26.1 C17.81 31.43 20.16 36.75 22.5 42.06 C23.42 44.15 24.34 46.25 25.26 48.34 C27.06 52.42 28.85 56.49 30.64 60.57 C31.53 62.59 32.42 64.61 33.31 66.62 C33.76 67.64 34.21 68.66 34.67 69.7 C37.24 75.54 39.8 81.38 42.35 87.23 C43.52 89.92 44.7 92.62 45.88 95.31 C46.32 96.33 46.32 96.33 46.77 97.36 C50.98 107 55.25 116.6 59.56 126.19 C64.09 136.24 68.55 146.32 72.94 156.44 C73.46 157.63 73.98 158.82 74.51 160.05 C77.16 166.17 79.72 172.31 82.19 178.5 C82.46 179.18 82.73 179.87 83.01 180.57 C83.68 182.24 84.34 183.9 85 185.56 C69.54 185.61 54.07 185.64 38.61 185.67 C31.43 185.68 24.25 185.69 17.07 185.71 C10.81 185.73 4.55 185.75 -1.7 185.75 C-5.02 185.75 -8.33 185.76 -11.64 185.77 C-15.34 185.79 -19.04 185.79 -22.74 185.79 C-23.84 185.8 -24.94 185.8 -26.07 185.81 C-27.08 185.81 -28.09 185.81 -29.12 185.8 C-30 185.8 -30.87 185.81 -31.77 185.81 C-34 185.56 -34 185.56 -37 183.56 C-37.71 181.74 -38.41 179.92 -39.04 178.07 C-40.96 173.06 -43.54 168.33 -46 163.56 C-46.26 164.16 -46.52 164.75 -46.79 165.37 C-47.98 168.06 -49.18 170.75 -50.38 173.44 C-50.79 174.37 -51.2 175.31 -51.62 176.28 C-52.02 177.17 -52.42 178.07 -52.84 178.99 C-53.39 180.23 -53.39 180.23 -53.95 181.5 C-55 183.56 -55 183.56 -57 185.56 C-59.71 185.79 -59.71 185.79 -63.1 185.76 C-64.92 185.75 -64.92 185.75 -66.77 185.74 C-68.04 185.72 -69.32 185.7 -70.62 185.69 C-71.9 185.68 -73.18 185.67 -74.5 185.66 C-77.67 185.64 -80.83 185.6 -84 185.56 C-85 183.56 -85 183.56 -84.29 181.12 C-81.42 173.81 -78.26 166.73 -74.87 159.65 C-72.78 155.26 -70.86 150.86 -69.11 146.32 C-64.83 135.67 -60 125.23 -54.7 115.04 C-52.77 111.29 -51.2 107.53 -49.76 103.57 C-48.5 100.25 -46.97 97.07 -45.44 93.88 C-43.5 89.81 -41.63 85.76 -40 81.56 C-37.55 75.44 -35 69.44 -32 63.56 C-29.46 58.58 -27.25 53.52 -25.14 48.34 C-22.06 40.82 -18.56 33.5 -15.07 26.16 C-12.33 20.34 -9.78 14.46 -7.32 8.52 C-3.83 0.72 -3.83 0.72 0 0 Z " fill="#000002" transform="translate(973,126.4375)" /><path d="M0 0 C24.09 -0.05 48.17 -0.08 72.26 -0.1 C83.44 -0.11 94.63 -0.13 105.81 -0.15 C115.55 -0.17 125.3 -0.18 135.04 -0.19 C140.2 -0.19 145.37 -0.2 150.53 -0.21 C155.38 -0.22 160.24 -0.23 165.09 -0.23 C166.88 -0.23 168.66 -0.23 170.45 -0.24 C172.88 -0.25 175.31 -0.25 177.74 -0.24 C178.45 -0.25 179.16 -0.25 179.9 -0.26 C184.77 -0.23 184.77 -0.23 187 2 C187.27 4.09 187.27 4.09 187.25 6.5 C187.26 7.29 187.26 8.09 187.27 8.91 C187 11 187 11 185 13 C182.85 13.53 182.85 13.53 180.2 13.93 C179.22 14.08 178.25 14.24 177.25 14.39 C176.22 14.55 175.19 14.71 174.12 14.88 C145.09 19.65 122.83 37.28 100.65 55.81 C97.58 58.35 94.45 60.8 91.31 63.25 C85.47 67.82 79.71 72.48 73.96 77.17 C69.7 80.64 65.4 84.06 61.06 87.44 C54.94 92.21 48.95 97.14 42.97 102.09 C38.84 105.5 34.67 108.85 30.42 112.11 C26.99 114.79 23.62 117.56 20.25 120.31 C15.39 124.28 10.49 128.19 5.5 132 C-1.54 137.37 -8.38 142.96 -15.23 148.56 C-18.26 151.03 -21.31 153.46 -24.37 155.9 C-26.48 157.59 -28.59 159.28 -30.7 160.98 C-31.35 161.51 -32.01 162.04 -32.69 162.58 C-33.98 163.62 -35.27 164.66 -36.56 165.7 C-37.16 166.19 -37.77 166.67 -38.39 167.17 C-38.91 167.59 -39.44 168.02 -39.99 168.46 C-40.98 169.22 -40.98 169.22 -42 170 C-42.71 170.63 -42.71 170.63 -43.44 171.27 C-48.46 175.4 -52.51 175.67 -58.87 175.49 C-59.79 175.48 -60.72 175.47 -61.67 175.47 C-64.59 175.44 -67.51 175.38 -70.44 175.31 C-72.43 175.29 -74.42 175.26 -76.41 175.24 C-81.28 175.19 -86.14 175.1 -91 175 C-91.33 174.34 -91.66 173.68 -92 173 C-90.95 172.41 -90.95 172.41 -89.87 171.81 C-86.68 169.8 -83.9 167.47 -81.06 165 C-76.52 161.1 -71.91 157.3 -67.19 153.62 C-57.37 145.98 -47.75 138.08 -38.12 130.19 C-34.06 126.85 -29.96 123.56 -25.85 120.29 C-21.6 116.88 -17.39 113.43 -13.17 109.99 C-8.78 106.42 -4.34 102.91 0.12 99.44 C5.53 95.23 10.77 90.84 15.95 86.35 C19.56 83.22 23.22 80.18 26.94 77.19 C38.7 67.58 51.21 54.56 53.44 38.94 C52.64 31.75 48.96 25.2 43.44 20.5 C33.77 14.23 21.18 14.43 10.05 13.73 C9.04 13.67 8.03 13.6 6.99 13.53 C6.08 13.47 5.16 13.42 4.22 13.36 C2 13 2 13 0 11 C-0.2 8.4 -0.2 8.4 -0.12 5.38 C-0.11 4.37 -0.09 3.37 -0.07 2.34 C-0.05 1.57 -0.02 0.79 0 0 Z " fill="#000002" transform="translate(430,137)" /><path d="M0 0 C2.27 2.16 4.15 4.48 6 7 C6.6 7.8 7.2 8.61 7.81 9.44 C10.37 14.95 10.65 21.21 9 27 C4.94 32.94 -0.1 37.7 -7 40 C-11.75 40.3 -16.38 40.19 -21 39 C-21 38.34 -21 37.68 -21 37 C-21.72 36.77 -22.44 36.55 -23.19 36.31 C-27.88 34.12 -30.78 31.02 -32.88 26.31 C-34.8 20.58 -33.81 14.97 -32.25 9.25 C-30.48 6.07 -28.52 3.64 -26 1 C-25.01 1 -24.02 1 -23 1 C-22.67 0.01 -22.34 -0.98 -22 -2 C-14.17 -3.61 -7.09 -4.15 0 0 Z " fill="#FDFDFD" transform="translate(405,355)" /><path d="M0 0 C0.84 -0.01 1.69 -0.02 2.55 -0.04 C14.47 -0.06 14.47 -0.06 18.84 4.03 C19.3 4.72 19.77 5.41 20.25 6.12 C20.73 6.81 21.21 7.5 21.71 8.21 C24.46 12.87 24.45 17.55 23.31 22.75 C20.67 27.22 16.94 30.57 11.94 32.06 C11.26 32.1 10.58 32.14 9.88 32.19 C12.14 36.22 14.82 39.79 17.67 43.42 C18.88 45.19 18.88 45.19 18.88 47.19 C20.36 47.68 20.36 47.68 21.88 48.19 C23.06 50.75 23.06 50.75 23.88 53.19 C20.23 53.55 18.49 53.68 15.57 51.35 C14.86 50.51 14.16 49.68 13.44 48.81 C12.67 47.91 11.9 47.01 11.11 46.07 C8.39 42.56 5.97 38.92 3.68 35.12 C1.62 32.52 1.62 32.52 -4.12 32.19 C-4.12 38.79 -4.12 45.39 -4.12 52.19 C-6.11 52.68 -6.11 52.68 -8.12 53.19 C-10.28 49.95 -10.37 49.09 -10.37 45.36 C-10.37 44.39 -10.37 43.41 -10.38 42.4 C-10.37 41.35 -10.36 40.3 -10.36 39.21 C-10.36 38.13 -10.35 37.05 -10.35 35.94 C-10.35 33.65 -10.34 31.37 -10.33 29.08 C-10.31 25.57 -10.31 22.06 -10.31 18.55 C-10.31 16.33 -10.3 14.11 -10.29 11.9 C-10.29 10.84 -10.29 9.78 -10.29 8.69 C-10.28 7.72 -10.28 6.75 -10.27 5.75 C-10.27 4.89 -10.26 4.03 -10.26 3.15 C-9.93 -1.7 -3.72 0 0 0 Z " fill="#000002" transform="translate(314.125,346.8125)" /><path d="M0 0 C0.84 -0.01 1.69 -0.02 2.55 -0.04 C14.52 -0.06 14.52 -0.06 18.84 4.06 C19.54 5.11 19.54 5.11 20.25 6.19 C20.73 6.89 21.21 7.59 21.71 8.31 C24.35 12.57 24.47 16.25 23.88 21.19 C21.66 25.54 19 28.57 14.88 31.19 C12.06 31.44 12.06 31.44 9.88 31.19 C12.08 36.42 15.34 40.45 18.94 44.82 C23.88 50.85 23.88 50.85 23.88 53.19 C21.31 53.69 21.31 53.69 17.88 53.19 C14.13 50.08 11.43 45.97 8.64 42.02 C8.25 41.48 7.87 40.94 7.47 40.38 C6.36 38.81 5.27 37.22 4.18 35.63 C1.73 32.54 1.73 32.54 -4.12 32.19 C-4.12 38.79 -4.12 45.39 -4.12 52.19 C-6.11 52.68 -6.11 52.68 -8.12 53.19 C-9.34 50.75 -9.29 49.11 -9.35 46.39 C-9.37 45.39 -9.39 44.39 -9.42 43.36 C-9.44 42.28 -9.46 41.2 -9.48 40.09 C-9.5 38.99 -9.52 37.88 -9.55 36.74 C-9.59 34.4 -9.64 32.07 -9.68 29.73 C-9.75 26.14 -9.83 22.54 -9.91 18.95 C-9.95 16.68 -10 14.42 -10.04 12.15 C-10.06 11.07 -10.09 9.99 -10.11 8.87 C-10.14 7.38 -10.14 7.38 -10.16 5.86 C-10.18 4.98 -10.2 4.1 -10.21 3.19 C-10 -1.72 -3.74 0 0 0 Z " fill="#000002" transform="translate(1050.125,346.8125)" /><path d="M0 0 C0.33 0 0.66 0 1 0 C1.25 1.28 1.5 2.55 1.75 3.87 C2.94 9.18 4.85 14.05 6.94 19.06 C14 36.27 14 36.27 14 40 C15.49 40.5 15.49 40.5 17 41 C17.22 40.42 17.44 39.83 17.67 39.23 C18.7 36.53 19.72 33.83 20.75 31.12 C21.27 29.75 21.27 29.75 21.8 28.34 C23.55 23.75 25.32 19.18 27.16 14.62 C28.45 11.4 29.68 8.18 30.75 4.88 C30.99 4.13 31.23 3.38 31.48 2.62 C31.65 2.08 31.82 1.55 32 1 C32.66 1 33.32 1 34 1 C37.57 14.53 40.44 28.2 43.34 41.89 C44.2 45.93 45.09 49.97 46 54 C44.02 54.5 44.02 54.5 42 55 C38.39 50.13 37.59 44.62 36.38 38.81 C35.95 36.82 35.52 34.83 35.09 32.83 C34.81 31.51 34.81 31.51 34.52 30.17 C34.08 27.97 34.08 27.97 33 26 C32.96 23.67 32.96 21.33 33 19 C32.34 19 31.68 19 31 19 C30.81 20.09 30.81 20.09 30.61 21.21 C30.03 23.84 29.27 26.18 28.29 28.7 C27.96 29.57 27.62 30.45 27.27 31.35 C26.91 32.27 26.56 33.18 26.19 34.12 C25.46 36.01 24.74 37.89 24.01 39.77 C23.49 41.12 23.49 41.12 22.96 42.5 C21.24 46.98 19.61 51.48 18 56 C17.34 56 16.68 56 16 56 C16 55.34 16 54.68 16 54 C15.34 54 14.68 54 14 54 C12.47 50.25 10.94 46.49 9.41 42.74 C8.89 41.46 8.37 40.19 7.85 38.91 C7.1 37.07 6.35 35.23 5.6 33.39 C5.15 32.29 4.7 31.18 4.24 30.05 C3.83 29.04 3.42 28.04 3 27 C2.62 26.1 2.23 25.21 1.84 24.29 C1 22 1 22 1 19 C0.34 19 -0.32 19 -1 19 C-0.97 20.01 -0.95 21.03 -0.92 22.07 C-1 25.86 -1.5 29.12 -2.31 32.81 C-2.58 34.05 -2.85 35.29 -3.13 36.57 C-3.42 37.85 -3.71 39.12 -4 40.44 C-4.29 41.75 -4.58 43.07 -4.87 44.39 C-5.57 47.59 -6.28 50.8 -7 54 C-8.98 54.5 -8.98 54.5 -11 55 C-11.66 53.68 -12.32 52.36 -13 51 C-12.5 50.5 -12.5 50.5 -12 50 C-11.57 47.73 -11.18 45.47 -10.81 43.19 C-9.4 34.84 -7.73 26.54 -6 18.25 C-5.75 17.02 -5.5 15.8 -5.25 14.54 C-5 13.37 -4.75 12.21 -4.5 11.02 C-4.28 9.98 -4.07 8.94 -3.84 7.87 C-2.96 4.86 -1.78 2.58 0 0 Z " fill="#010103" transform="translate(897,345)" /><path d="M0 0 C2.51 2.25 3.79 4.33 5.13 7.41 C5.71 8.75 5.71 8.75 6.31 10.12 C6.73 11.09 7.14 12.06 7.56 13.06 C7.99 14.06 8.42 15.07 8.87 16.1 C14.31 28.87 19.61 41.83 24 55 C21.81 55 21.81 55 19 54 C16.52 50.92 14.57 47.5 13.17 43.8 C12.13 41.79 12.13 41.79 9.78 41.26 C6.67 40.97 3.62 40.87 0.5 40.88 C-0.6 40.87 -1.71 40.87 -2.84 40.87 C-6.33 40.93 -6.33 40.93 -11 42 C-12.32 45.96 -13.64 49.92 -15 54 C-17.48 54.5 -17.48 54.5 -20 55 C-21.11 51.68 -20.97 49.36 -20 46 C-19.34 45.34 -18.68 44.68 -18 44 C-14.79 37.81 -12.34 31.32 -10.04 24.75 C-8.97 21.91 -7.73 19.19 -6.44 16.44 C-4.37 12.01 -2.86 7.61 -1.58 2.9 C-1 1 -1 1 0 0 Z " fill="#020204" transform="translate(522,345)" /><path d="M0 0 C4.1 4.45 6.04 9.34 8.26 14.87 C8.65 15.82 9.04 16.77 9.44 17.75 C10.26 19.77 11.07 21.78 11.88 23.79 C13.12 26.86 14.37 29.92 15.62 32.99 C16.42 34.95 17.21 36.91 18.01 38.87 C18.38 39.78 18.75 40.69 19.13 41.63 C21.04 46.37 22.7 51.05 24 56 C21.2 55.7 19.48 55.44 17.38 53.5 C15.4 49.91 14.3 45.89 13 42 C5.08 42 -2.84 42 -11 42 C-11.33 43.98 -11.66 45.96 -12 48 C-12.97 50.34 -12.97 50.34 -14.06 52.38 C-14.42 53.06 -14.79 53.75 -15.16 54.46 C-15.44 54.97 -15.71 55.48 -16 56 C-17.32 55.67 -18.64 55.34 -20 55 C-20 50.32 -19.3 47.34 -17.12 43.25 C-15.43 39.96 -14.09 36.67 -12.84 33.18 C-11.86 30.65 -10.72 28.21 -9.56 25.75 C-7.24 20.76 -5.5 15.7 -3.89 10.43 C-3 8 -3 8 -1 6 C-0.6 4.01 -0.26 2.01 0 0 Z " fill="#020204" transform="translate(251,344)" /><path d="M0 0 C4.1 3.44 5.61 7.2 7.5 12.06 C7.81 12.85 8.13 13.64 8.45 14.45 C9.46 16.96 10.45 19.48 11.44 22 C12.1 23.66 12.76 25.33 13.42 26.99 C14.39 29.42 15.36 31.84 16.32 34.28 C18.52 39.84 20.81 45.35 23.17 50.85 C24 53 24 53 24 55 C21.75 54.88 21.75 54.88 19 54 C16.65 51.02 15.07 48.17 13.56 44.69 C12.31 41.86 12.31 41.86 9.98 41.34 C5.88 40.87 1.82 40.9 -2.31 40.94 C-3.57 40.94 -3.57 40.94 -4.85 40.95 C-6.9 40.96 -8.95 40.98 -11 41 C-11.12 41.73 -11.24 42.45 -11.37 43.2 C-11.99 45.96 -12.88 48.25 -14.06 50.81 C-14.42 51.6 -14.79 52.39 -15.16 53.21 C-15.44 53.8 -15.71 54.39 -16 55 C-17.32 55 -18.64 55 -20 55 C-20.69 53.31 -20.69 53.31 -21 51 C-20.06 49.3 -19.05 47.63 -18 46 C-17.31 44.01 -16.65 42.01 -16 40 C-13.28 32.38 -10.47 24.79 -7.08 17.44 C-4.54 11.7 -2.31 5.83 0 0 Z " fill="#020204" transform="translate(836,345)" /><path d="M0 0 C2.94 1.47 3.12 3.41 4.29 6.45 C4.95 8.17 4.95 8.17 5.63 9.93 C6.11 11.18 6.59 12.43 7.06 13.69 C8.05 16.24 9.03 18.8 10.02 21.36 C10.27 22 10.52 22.64 10.78 23.31 C13.5 30.34 16.4 37.3 19.36 44.24 C19.71 45.08 20.06 45.92 20.42 46.78 C20.73 47.5 21.03 48.23 21.35 48.97 C22 51 22 51 22 55 C19.83 54.49 18 54 16 53 C14.86 50.19 13.95 47.34 13 44.47 C12.26 41.85 12.26 41.85 10 41 C6.86 40.74 3.71 40.77 0.56 40.75 C-0.75 40.72 -0.75 40.72 -2.08 40.69 C-3.34 40.68 -3.34 40.68 -4.62 40.67 C-5.39 40.66 -6.16 40.65 -6.95 40.64 C-9.55 41.1 -10.37 41.96 -12 44 C-12.96 45.87 -13.85 47.76 -14.69 49.69 C-15.12 50.68 -15.56 51.68 -16.01 52.7 C-16.34 53.46 -16.66 54.22 -17 55 C-18.65 54.67 -20.3 54.34 -22 54 C-22 51 -22 51 -20 49 C-19.23 47.11 -19.23 47.11 -18.59 44.93 C-17.1 40.24 -15.35 35.69 -13.5 31.13 C-13.17 30.33 -12.85 29.53 -12.51 28.7 C-11.84 27.03 -11.16 25.35 -10.47 23.68 C-9.43 21.11 -8.4 18.54 -7.36 15.98 C-6.7 14.34 -6.03 12.71 -5.37 11.07 C-5.06 10.3 -4.75 9.54 -4.44 8.75 C-3.15 5.61 -1.89 2.83 0 0 Z " fill="#010103" transform="translate(989,345)" /><path d="M0 0 C2 1 2 1 3.01 3.51 C3.38 4.63 3.76 5.74 4.14 6.9 C6.13 12.73 8.36 18.43 10.77 24.1 C11.1 24.88 11.43 25.66 11.77 26.46 C13.13 29.67 14.49 32.88 15.87 36.09 C16.88 38.46 17.89 40.84 18.89 43.23 C19.21 43.95 19.52 44.67 19.84 45.42 C21.31 48.9 22 51.16 22 55 C18.67 54.43 17.19 53.55 15 51 C13.83 48.81 13.83 48.81 12.81 46.44 C12.47 45.65 12.12 44.87 11.77 44.06 C11 42 11 42 11 40 C3.41 40.33 -4.18 40.66 -12 41 C-12.99 44.3 -13.98 47.6 -15 51 C-15.66 52.32 -16.32 53.64 -17 55 C-18.65 54.67 -20.3 54.34 -22 54 C-22 50.86 -21.57 49.86 -20.12 47.19 C-18.9 44.84 -17.9 42.71 -17.06 40.19 C-16.07 37.22 -14.88 34.52 -13.56 31.69 C-11.7 27.66 -10.16 23.68 -8.81 19.46 C-7.78 16.34 -6.65 13.27 -5.5 10.19 C-5.1 9.11 -4.7 8.03 -4.28 6.92 C-3.11 4.25 -1.86 2.23 0 0 Z " fill="#010103" transform="translate(1123,345)" /><path d="M0 0 C6.1 5.78 8.97 13.68 9.38 22 C9.17 26.77 8.04 31.69 6 36 C5.01 36.33 4.02 36.66 3 37 C2.88 37.6 2.76 38.21 2.64 38.83 C1.4 43.04 -2.83 44.55 -6.46 46.57 C-13.18 49.28 -21.05 49.47 -27.88 46.81 C-28.91 46.21 -29.94 45.62 -31 45 C-31.67 44.66 -32.33 44.32 -33.02 43.97 C-38.85 40.77 -42.52 36.49 -44.62 30.12 C-46.25 21.06 -45.09 13.26 -40.38 5.44 C-36.3 -0.42 -31.49 -3.52 -24.62 -5.38 C-15.61 -6.97 -7.54 -5.23 0 0 Z M-29 2 C-29 2.66 -29 3.32 -29 4 C-29.84 4.06 -29.84 4.06 -30.69 4.12 C-34.19 5.45 -36.08 7.9 -38 11 C-40.45 17.67 -40.73 24.29 -38.25 31.05 C-36.04 35.37 -33.21 37.71 -29 40 C-28.34 40 -27.68 40 -27 40 C-27 40.66 -27 41.32 -27 42 C-21.27 43.48 -15.47 43.89 -9.88 41.88 C-4.57 38.42 1.97 34.12 3.58 27.67 C4.37 19.13 2.95 13.54 -2.42 6.8 C-6.22 2.48 -9.4 0.29 -15.11 -0.17 C-20.15 -0.21 -24.23 0.38 -29 2 Z " fill="#000002" transform="translate(411,352)" /><path d="M0 0 C2.46 2.43 4.69 4.77 6.66 7.62 C7.14 8.3 7.62 8.98 8.11 9.69 C8.61 10.41 9.11 11.13 9.62 11.88 C10.69 13.4 11.76 14.92 12.82 16.44 C14.37 18.66 15.92 20.89 17.47 23.11 C18.81 25.04 20.15 26.96 21.5 28.88 C21.9 29.45 22.29 30.03 22.7 30.62 C24.96 33.83 26.77 35.58 30 38 C30.33 26.45 30.66 14.9 31 3 C35 4 35 4 36 5 C36.09 6.66 36.12 8.32 36.11 9.98 C36.11 11.04 36.11 12.1 36.11 13.19 C36.11 14.35 36.1 15.5 36.1 16.69 C36.1 17.87 36.09 19.04 36.09 20.25 C36.09 24.02 36.08 27.79 36.06 31.56 C36.06 34.11 36.05 36.66 36.05 39.21 C36.04 45.47 36.02 51.74 36 58 C33.17 55.23 30.47 52.5 28.1 49.33 C27.6 48.67 27.11 48.01 26.6 47.33 C26.09 46.64 25.58 45.96 25.06 45.25 C24.53 44.54 24 43.83 23.46 43.1 C20.26 38.78 17.16 34.41 14.25 29.9 C12.94 27.9 11.54 25.99 10.12 24.06 C8 21 8 21 8 19 C7.34 19 6.68 19 6 19 C6 31.21 6 43.42 6 56 C2 55 2 55 1 54 C0.88 52.31 0.82 50.62 0.79 48.93 C0.76 47.31 0.76 47.31 0.73 45.65 C0.72 44.48 0.7 43.3 0.68 42.09 C0.66 40.89 0.64 39.7 0.62 38.46 C0.55 34.62 0.5 30.78 0.44 26.94 C0.39 24.34 0.35 21.74 0.31 19.15 C0.2 12.76 0.1 6.38 0 0 Z " fill="#010103" transform="translate(642,344)" /><path d="M0 0 C3.88 0.88 3.88 0.88 5 2 C5.16 3.63 5.25 5.27 5.32 6.91 C5.35 7.8 5.39 8.69 5.43 9.61 C5.47 10.75 5.52 11.89 5.56 13.06 C5.71 16.67 5.85 20.28 6 24 C13.59 24 21.18 24 29 24 C29 16.41 29 8.82 29 1 C30.32 0.67 31.64 0.34 33 0 C35 2 35 2 35.24 4.14 C35.23 5.46 35.23 5.46 35.23 6.82 C35.23 7.82 35.23 8.82 35.23 9.85 C35.22 10.93 35.21 12.02 35.2 13.13 C35.19 14.24 35.19 15.35 35.19 16.49 C35.18 20.03 35.15 23.58 35.12 27.12 C35.11 29.52 35.11 31.92 35.1 34.32 C35.08 40.22 35.04 46.11 35 52 C33.13 52.62 33.13 52.62 31 53 C29 51 29 51 28.77 48.85 C28.78 47.98 28.79 47.11 28.8 46.21 C28.81 45.36 28.81 44.52 28.82 43.64 C28.84 42.56 28.86 41.49 28.88 40.38 C28.92 36.95 28.96 33.53 29 30 C21.08 29.67 13.16 29.34 5 29 C5 36.59 5 44.18 5 52 C3.02 52.5 3.02 52.5 1 53 C0 52 0 52 -0.12 49.91 C-0.12 48.52 -0.12 48.52 -0.11 47.11 C-0.11 46.07 -0.11 45.03 -0.11 43.96 C-0.11 42.83 -0.1 41.69 -0.1 40.53 C-0.1 39.37 -0.09 38.22 -0.09 37.03 C-0.09 33.34 -0.08 29.64 -0.06 25.94 C-0.06 23.44 -0.05 20.94 -0.05 18.44 C-0.04 12.29 -0.02 6.15 0 0 Z " fill="#050507" transform="translate(167,347)" /><path d="M0 0 C9.57 0 19.14 0 29 0 C29.66 1.32 30.32 2.64 31 4 C30 5 30 5 27.59 5.11 C26.55 5.11 25.51 5.1 24.43 5.1 C23.31 5.09 22.18 5.09 21.03 5.09 C19.84 5.08 18.66 5.07 17.44 5.06 C16.25 5.06 15.06 5.05 13.84 5.05 C10.89 5.04 7.95 5.02 5 5 C5.33 11.27 5.66 17.54 6 24 C13.26 24 20.52 24 28 24 C28.66 25.32 29.32 26.64 30 28 C29 29 29 29 26.68 29.11 C25.68 29.11 24.68 29.1 23.65 29.1 C22.57 29.09 21.49 29.09 20.38 29.09 C19.24 29.08 18.11 29.07 16.94 29.06 C15.8 29.06 14.66 29.05 13.48 29.05 C10.65 29.04 7.83 29.02 5 29 C5.33 35.27 5.66 41.54 6 48 C13.59 48 21.18 48 29 48 C29.66 49.32 30.32 50.64 31 52 C28.66 54.34 22.81 53.17 19.7 53.19 C19.02 53.19 18.34 53.19 17.64 53.19 C15.57 53.19 13.51 53.21 11.44 53.22 C10.14 53.23 8.84 53.23 7.5 53.23 C6.31 53.23 5.11 53.24 3.87 53.24 C1 53 1 53 -1 51 C-1.25 48.91 -1.25 48.91 -1.24 46.31 C-1.25 45.33 -1.25 44.36 -1.25 43.35 C-1.25 42.3 -1.24 41.24 -1.23 40.16 C-1.23 38.54 -1.23 38.54 -1.23 36.88 C-1.23 34.6 -1.22 32.31 -1.21 30.02 C-1.19 26.51 -1.19 23.01 -1.19 19.5 C-1.18 17.28 -1.17 15.06 -1.17 12.84 C-1.17 11.79 -1.17 10.73 -1.16 9.65 C-1.16 8.67 -1.15 7.7 -1.15 6.69 C-1.14 5.83 -1.14 4.97 -1.13 4.09 C-1 2 -1 2 0 0 Z " fill="#000002" transform="translate(712,347)" /><path d="M0 0 C2.06 0.44 2.06 0.44 4 1 C4.08 1.86 4.08 1.86 4.17 2.73 C4.42 5.3 4.68 7.87 4.94 10.44 C5.02 11.34 5.11 12.23 5.2 13.16 C5.29 14.01 5.38 14.87 5.46 15.75 C5.54 16.54 5.62 17.33 5.7 18.14 C5.82 20.01 5.82 20.01 7 21 C7.66 20.07 8.33 19.14 9.01 18.18 C14.32 10.75 14.32 10.75 15.66 8.89 C16.57 7.6 17.47 6.3 18.35 4.99 C19.51 3.28 20.75 1.64 22 0 C24.81 -0.44 24.81 -0.44 27 0 C27 4.91 25.12 7.12 22.31 10.88 C21.88 11.47 21.44 12.07 20.99 12.69 C17.45 17.54 17.45 17.54 15.52 19.54 C12.86 22.31 12.01 23.62 11.91 27.52 C13.14 31.46 14.69 33.57 17.44 36.62 C20.44 39.99 22.58 42.7 24 47 C24.66 47 25.32 47 26 47 C26.12 47.64 26.25 48.28 26.38 48.94 C26.58 49.62 26.79 50.3 27 51 C27.66 51.33 28.32 51.66 29 52 C28 53 28 53 25.75 53.38 C21.88 52.85 20.33 50.93 18 48 C15.27 44.38 12.63 40.69 10 37 C9.43 36.29 8.85 35.58 8.26 34.85 C7 33 7 33 7 30 C6.34 30 5.68 30 5 30 C5 37.26 5 44.52 5 52 C3.02 52.5 3.02 52.5 1 53 C-1 51 -1 51 -1.25 48.87 C-1.25 47.99 -1.24 47.11 -1.24 46.2 C-1.25 45.2 -1.25 44.2 -1.25 43.18 C-1.25 42.1 -1.24 41.02 -1.23 39.9 C-1.23 38.8 -1.23 37.69 -1.23 36.56 C-1.23 34.22 -1.22 31.88 -1.21 29.54 C-1.19 25.95 -1.19 22.36 -1.19 18.76 C-1.18 16.5 -1.17 14.23 -1.17 11.96 C-1.17 10.88 -1.17 9.8 -1.16 8.69 C-1.16 7.69 -1.15 6.7 -1.15 5.67 C-1.14 4.79 -1.14 3.91 -1.13 3 C-1 1 -1 1 0 0 Z " fill="#030305" transform="translate(109,347)" /><path d="M0 0 C0 0.66 0 1.32 0 2 C0.66 2 1.32 2 2 2 C3.2 3.68 4.31 5.42 5.38 7.19 C9.84 15.01 9.84 15.01 17 20 C17.27 19.43 17.55 18.86 17.83 18.27 C21.4 11.37 26.28 5.14 31 -1 C32.98 -0.67 34.96 -0.34 37 0 C37 0.66 37 1.32 37 2 C36.34 2.33 35.68 2.66 35 3 C34.06 4.65 33.11 6.31 32.2 7.98 C29.76 12.1 26.8 16.11 23.5 19.58 C18.18 25.62 18.11 31.18 18.12 39 C18.1 40.16 18.08 41.31 18.06 42.5 C18.02 45.34 18 48.17 18 51 C16.02 51.5 16.02 51.5 14 52 C11.82 48.74 11.8 48.19 12.09 44.5 C12.95 30.86 12.95 30.86 6.24 19.36 C5.5 18.58 4.76 17.8 4 17 C2.68 15.23 1.38 13.44 0.12 11.62 C-0.71 10.47 -0.71 10.47 -1.55 9.29 C-3.04 6.93 -4.05 4.62 -5 2 C-5.66 2 -6.32 2 -7 2 C-7 1.34 -7 0.68 -7 0 C-4.33 -1.33 -2.83 -0.67 0 0 Z " fill="#000002" transform="translate(577,348)" /><path d="M0 0 C2.4 -0.08 4.79 -0.14 7.19 -0.19 C7.86 -0.21 8.53 -0.24 9.23 -0.26 C13.71 -0.33 16.43 0.26 20 3 C22.36 5.93 22.97 7.75 23.44 11.5 C22.92 15.62 21.95 17.13 19 20 C15.36 22.44 12.05 22.2 7.75 22.12 C6.49 22.11 5.22 22.09 3.92 22.07 C2.96 22.05 1.99 22.02 1 22 C-0.2 19.6 -0.11 18.11 -0.1 15.43 C-0.09 14.53 -0.09 13.64 -0.09 12.71 C-0.08 11.78 -0.07 10.84 -0.06 9.88 C-0.06 8.93 -0.05 7.99 -0.05 7.01 C-0.04 4.67 -0.02 2.34 0 0 Z " fill="#FDFDFD" transform="translate(1046,352)" /><path d="M0 0 C2.4 -0.08 4.79 -0.14 7.19 -0.19 C7.86 -0.21 8.53 -0.24 9.23 -0.26 C13.71 -0.33 16.45 0.24 20 3 C22.88 7.13 23.48 10.32 22.65 15.17 C21.35 18.83 18.31 20.35 15 22 C12.63 22.07 10.25 22.08 7.88 22.06 C6.59 22.05 5.31 22.04 3.99 22.04 C2.51 22.02 2.51 22.02 1 22 C-0.2 19.6 -0.11 18.11 -0.1 15.43 C-0.09 14.53 -0.09 13.64 -0.09 12.71 C-0.08 11.78 -0.07 10.84 -0.06 9.88 C-0.06 8.93 -0.05 7.99 -0.05 7.01 C-0.04 4.67 -0.02 2.34 0 0 Z " fill="#FDFDFD" transform="translate(310,352)" /><path d="M0 0 C3.69 0.69 3.69 0.69 5 2 C5.12 3.44 5.18 4.89 5.21 6.34 C5.23 7.26 5.25 8.18 5.27 9.13 C5.28 10.13 5.3 11.13 5.32 12.16 C5.34 13.18 5.36 14.2 5.38 15.25 C5.44 18.52 5.5 21.79 5.56 25.06 C5.61 27.27 5.65 29.49 5.69 31.7 C5.8 37.13 5.9 42.57 6 48 C11.61 48 17.22 48 23 48 C23.33 49.32 23.66 50.64 24 52 C21.58 54.42 15.31 53.19 12.06 53.19 C11.03 53.2 10.01 53.21 8.95 53.22 C7.97 53.23 6.98 53.23 5.97 53.23 C4.62 53.24 4.62 53.24 3.23 53.24 C1 53 1 53 -1 51 C-1.25 48.87 -1.25 48.87 -1.24 46.2 C-1.25 45.2 -1.25 44.2 -1.25 43.18 C-1.25 42.1 -1.24 41.02 -1.23 39.9 C-1.23 38.8 -1.23 37.69 -1.23 36.56 C-1.23 34.22 -1.22 31.88 -1.21 29.54 C-1.19 25.95 -1.19 22.36 -1.19 18.76 C-1.18 16.5 -1.17 14.23 -1.17 11.96 C-1.17 10.88 -1.17 9.8 -1.16 8.69 C-1.16 7.69 -1.15 6.7 -1.15 5.67 C-1.14 4.79 -1.14 3.91 -1.13 3 C-1 1 -1 1 0 0 Z " fill="#060608" transform="translate(1175,347)" /><path d="M0 0 C1.65 0.33 3.3 0.66 5 1 C5.33 16.51 5.66 32.02 6 48 C11.61 48 17.22 48 23 48 C23.33 49.32 23.66 50.64 24 52 C23 53 23 53 20.87 53.11 C19.49 53.11 19.49 53.11 18.09 53.1 C17.1 53.09 16.11 53.09 15.09 53.09 C14.05 53.08 13.01 53.07 11.94 53.06 C10.89 53.06 9.85 53.05 8.77 53.05 C6.18 53.04 3.59 53.02 1 53 C-0.84 49.86 -1.23 47.66 -1.14 44.05 C-1.12 43.07 -1.09 42.09 -1.07 41.08 C-1.03 39.5 -1.03 39.5 -0.98 37.89 C-0.95 36.81 -0.93 35.73 -0.9 34.61 C-0.82 31.16 -0.72 27.7 -0.62 24.25 C-0.57 21.91 -0.51 19.57 -0.45 17.22 C-0.31 11.48 -0.16 5.74 0 0 Z " fill="#000002" transform="translate(452,347)" /><path d="M0 0 C1.4 2.66 2.48 5.26 3.38 8.12 C5.02 13.18 6.98 18.09 9 23 C6.95 25.05 2.87 24.23 0.06 24.25 C-0.68 24.27 -1.42 24.29 -2.19 24.31 C-4.34 24.33 -4.34 24.33 -8 24 C-8.66 23.01 -9.32 22.02 -10 21 C-9.24 18.36 -9.24 18.36 -7.88 15.31 C-7.4 14.25 -6.93 13.19 -6.45 12.09 C-1.49 1.49 -1.49 1.49 0 0 Z " fill="#FCFCFC" transform="translate(990,357)" /><path d="M0 0 C0.66 0 1.32 0 2 0 C2.24 0.63 2.47 1.25 2.72 1.9 C3.79 4.72 4.86 7.55 5.94 10.38 C6.31 11.36 6.68 12.34 7.07 13.36 C7.43 14.3 7.78 15.24 8.15 16.21 C8.48 17.08 8.81 17.95 9.15 18.85 C9.96 21 9.96 21 11 23 C7.93 24.53 4.73 24.1 1.38 24.06 C0.67 24.06 -0.04 24.05 -0.77 24.05 C-2.51 24.04 -4.26 24.02 -6 24 C-7.61 19.19 -6.08 15.85 -4.12 11.44 C-1.66 5.86 -1.66 5.86 0 0 Z " fill="#FCFCFC" transform="translate(836,357)" /><path d="M0 0 C0.66 0 1.32 0 2 0 C5.05 5.67 7.22 11.32 9.17 17.46 C9.92 19.96 9.92 19.96 11 22 C7.93 23.53 4.73 23.1 1.38 23.06 C0.67 23.06 -0.04 23.05 -0.77 23.05 C-2.51 23.04 -4.26 23.02 -6 23 C-7.56 18.29 -6.16 15.21 -4.12 10.94 C-1.61 5.63 -1.61 5.63 0 0 Z " fill="#FDFDFD" transform="translate(251,358)" /><path d="M0 0 C0.66 0 1.32 0 2 0 C2.33 0.86 2.65 1.71 2.99 2.6 C5.76 9.92 5.76 9.92 8.81 17.12 C10 20 10 20 10 23 C7.37 23.08 4.75 23.14 2.12 23.19 C1.01 23.23 1.01 23.23 -0.14 23.26 C-2.3 23.29 -2.3 23.29 -6 23 C-6.66 22.01 -7.32 21.02 -8 20 C-7.49 17.82 -7.49 17.82 -6.45 15.33 C-6.08 14.44 -5.71 13.55 -5.33 12.63 C-4.93 11.7 -4.54 10.77 -4.12 9.81 C-3.73 8.87 -3.34 7.93 -2.94 6.96 C-1.97 4.64 -0.99 2.32 0 0 Z " fill="#FCFCFC" transform="translate(1122,358)" /><path d="M0 0 C2.51 1.25 2.65 2.09 3.69 4.64 C4 5.38 4.3 6.12 4.62 6.89 C4.93 7.67 5.24 8.45 5.56 9.25 C5.88 10.01 6.2 10.78 6.52 11.57 C9.56 19.04 9.56 19.04 10 23 C8.01 24.99 4.27 24.23 1.56 24.25 C0.87 24.27 0.17 24.29 -0.54 24.31 C-2.56 24.33 -2.56 24.33 -6 24 C-6.66 23.01 -7.32 22.02 -8 21 C-7.6 19.16 -7.6 19.16 -6.7 17.13 C-6.38 16.39 -6.06 15.65 -5.74 14.89 C-5.22 13.74 -5.22 13.74 -4.69 12.56 C-4.02 11.04 -3.36 9.52 -2.7 8 C-2.25 7 -2.25 7 -1.79 5.97 C-1 4 -0.47 2.07 0 0 Z " fill="#FDFDFD" transform="translate(522,357)" /></svg>